<svg xmlns="http://www.w3.org/2000/svg" viewBox="0 0 24 24" fill="none" stroke="currentColor" stroke-width="1.6" stroke-linecap="round" stroke-linejoin="round">
  <path d="M7.5 12.5l-2-2.2a2.3 2.3 0 0 1 .2-3.1l1.2-1.2a2.3 2.3 0 0 1 3.2 0l1.7 1.7"/>
  <path d="M16.5 12.5l2-2.2a2.3 2.3 0 0 0-.2-3.1l-1.2-1.2a2.3 2.3 0 0 0-3.2 0l-1.1 1.1"/>
  <path d="M8.8 11.8l2.1 2.1a2.2 2.2 0 0 0 3.1 0l1.2-1.2"/>
  <path d="M10.2 14.2l.9.9a2.2 2.2 0 0 0 3.1 0l1.7-1.7"/>
  <path d="M9.2 15.2l.8.8a2.2 2.2 0 0 0 3.1 0"/>
</svg>
