<svg xmlns="http://www.w3.org/2000/svg" viewBox="0 0 24 24" fill="none" stroke="currentColor" stroke-width="1.6" stroke-linecap="round" stroke-linejoin="round">
  <path d="M7 7.5c1.6-1.1 3.3-1.7 5-1.7s3.4.6 5 1.7"/>
  <path d="M6.2 17.3c-1.2-2-1.8-4.1-1.8-6.3 0-1.2.2-2.3.5-3.4 1.1-.8 2.3-1.3 3.6-1.6l.7 1.2"/>
  <path d="M17.8 17.3c1.2-2 1.8-4.1 1.8-6.3 0-1.2-.2-2.3-.5-3.4-1.1-.8-2.3-1.3-3.6-1.6l-.7 1.2"/>
  <path d="M8.2 15.8c2.5 1.6 5.1 1.6 7.6 0"/>
  <path d="M9.5 12.3h.01"/>
  <path d="M14.5 12.3h.01"/>
  <path d="M8 19l1.5-1.2"/>
  <path d="M16 19l-1.5-1.2"/>
</svg>
